<svg viewBox="0 0 1536 512" xmlns="http://www.w3.org/2000/svg"><rect fill="#4c83ff" height="512" rx="60" width="1536"/><g fill="#fff"><path d="m268.42 181.02c-36.84 0-68.02 24.14-78.61 57.42 15.75-7.97 33.52-12.42 52.36-12.42h41.25c4.12 0 7.5 3.37 7.5 7.5s-3.38 7.5-7.5 7.5h-41.25c-7.78 0-15.33.89-22.64 2.53-12.14 2.77-23.39 7.69-33.47 14.39-27.19 18.14-45.14 49.12-45.14 84.33v7.5c0 6.23 5.02 11.25 11.25 11.25s11.25-5.02 11.25-11.25v-7.5c0-22.83 9.7-43.36 25.22-57.75 9.28 35.39 41.48 61.5 79.78 61.5h.47c61.92-.33 112.03-61.36 112.03-136.59 0-19.97-3.52-38.95-9.89-56.06-1.22-3.23-5.95-3.09-7.59-.05-8.81 16.5-26.25 27.7-46.27 27.7z"/><path d="m506.3 275.14c7.02-2.7 13.68 1.08 16.2 6.3 2.7 5.58 8.82 11.7 19.98 11.7s18-5.04 18.18-13.14c.18-5.58-2.34-10.44-14.94-14.04l-14.94-4.14c-27.36-8.46-32.04-24.12-32.04-35.28 0-22.14 18.9-37.08 42.66-37.08 17.82 0 31.14 7.74 37.8 20.7 3.06 5.94.54 11.7-3.96 14.58-6.48 4.14-12.24 2.34-16.56-3.06-5.22-6.66-12.06-8.64-17.64-8.64-9.18 0-16.02 5.4-16.02 12.78 0 3.24 1.26 9.18 13.32 12.6l14.76 4.32c30.06 8.64 34.38 25.56 34.02 37.44-.36 24.66-22.68 36.36-44.64 36.36s-37.8-10.62-43.2-26.64c-1.98-6.3.9-12.42 7.02-14.76z"/><path d="m611.02 230.86v-21.96c.18-6.12 5.94-11.16 12.6-11.16s12.6 4.86 12.6 11.16v21.96h9.54c5.04 0 9 4.5 9 9.9s-3.96 9.72-9 9.9h-9.54v54c0 6.3-5.76 11.16-12.6 11.16s-12.42-5.04-12.6-11.16v-54h-6.84c-5.04-.18-9-4.68-9-9.9s3.96-9.9 9-9.9z"/><path d="m700.66 349.3c-2.34 5.58-8.1 8.82-15.84 7.02-6.12-1.44-9.72-8.64-7.2-15.12l14.04-34.92-26.1-60.84c-2.34-6.48 1.26-13.32 7.38-14.94 7.92-1.98 13.68 1.62 15.66 7.2l15.84 41.04 16.2-41.04c1.98-5.58 7.74-9.18 15.66-7.2 6.12 1.62 9.72 8.46 7.38 14.94z"/><path d="m783.91 304.66c0 6.3-5.76 11.16-12.6 11.16s-12.42-5.04-12.6-11.16v-109.26c.18-6.12 5.94-11.16 12.6-11.16s12.6 4.86 12.6 11.16z"/><path d="m874.59 308.98c-8.46 5.58-19.08 7.56-28.98 7.56-24.12 0-43.92-17.46-43.92-43.92s19.8-43.38 43.92-43.38 43.02 17.64 43.02 44.1c0 4.5-3.78 7.74-7.74 7.74h-54.18c1.26 9.72 11.88 13.86 20.7 13.86 5.04 0 9.36-.36 14.58-3.96 5.76-3.96 12.24-2.88 15.84 1.26 4.68 5.4 2.88 13.14-3.24 16.74zm-11.16-43.56c-1.26-10.26-8.28-15.3-17.64-15.3s-16.56 4.68-18.72 15.3z"/><path d="m965.13 316.54c-35.64 0-63.54-28.44-63.54-63.36s27.9-63.72 63.54-63.72c15.3 0 28.26 4.68 38.7 12.96 4.68 3.6 3.96 13.86-1.08 18.36-4.68 3.96-11.34 4.14-15.84.9-5.76-4.32-13.5-6.66-21.78-6.66-20.88 0-37.26 17.1-37.26 38.16s16.38 37.8 37.26 37.8c14.22 0 25.2-6.3 30.6-19.8h-24.48c-5.58 0-10.62-5.04-10.62-10.62 0-6.12 4.86-10.8 10.62-10.8h46.26c6.12 0 8.46 3.24 7.74 9.9-4.32 39.42-27.18 56.88-60.12 56.88z"/><path d="m1096.96 302.68c-4.5 8.46-14.4 13.86-24.3 13.86-18.9 0-30.96-9.36-30.96-33.3v-42.12c0-6.3 5.76-11.16 12.6-11.16s12.42 5.04 12.6 11.16v34.56c0 11.16 4.14 16.56 14.58 16.56 8.82 0 15.48-4.14 15.48-16.92v-34.2c0-6.3 5.76-11.16 12.6-11.16s12.42 5.04 12.6 11.16v63.54c-.18 6.12-5.94 11.16-12.6 11.16s-12.6-4.86-12.6-11.16z"/><path d="m1157.05 185.15c8.46 0 15.3 6.3 15.3 14.58s-6.84 14.76-15.3 14.76-15.66-6.48-15.66-14.76 7.2-14.58 15.66-14.58zm12.6 119.51c0 6.3-5.76 11.16-12.6 11.16s-12.42-5.04-12.6-11.16v-63.54c.18-6.12 5.94-11.16 12.6-11.16s12.6 4.86 12.6 11.16z"/><path d="m1252.96 195.41c.18-6.12 5.94-11.16 12.6-11.16s12.6 4.86 12.6 11.16v109.26c0 6.3-5.76 11.16-12.6 11.16s-12.42-5.04-12.6-11.16v-1.62c-5.4 8.82-15.66 13.5-25.2 13.5-21.42 0-40.86-15.84-40.86-43.74s19.44-43.56 40.86-43.56c5.4 0 18 2.34 25.2 13.5zm-20.33 98.81c11.34 0 20.52-10.08 20.52-21.24s-9.18-21.24-20.52-21.24c-12.6 0-19.8 10.08-19.8 21.24s7.2 21.24 19.8 21.24z"/><path d="m1369.05 308.98c-8.46 5.58-19.08 7.56-28.98 7.56-24.12 0-43.92-17.46-43.92-43.92s19.8-43.38 43.92-43.38 43.02 17.64 43.02 44.1c0 4.5-3.78 7.74-7.74 7.74h-54.18c1.26 9.72 11.88 13.86 20.7 13.86 5.04 0 9.36-.36 14.58-3.96 5.76-3.96 12.24-2.88 15.84 1.26 4.68 5.4 2.88 13.14-3.24 16.74zm-11.16-43.56c-1.26-10.26-8.28-15.3-17.64-15.3s-16.56 4.68-18.72 15.3z"/></g></svg>