<svg viewBox="0 0 512 512" xmlns="http://www.w3.org/2000/svg"><g fill="#4c83ff"><path d="m256 24c31.33 0 61.71 6.13 90.3 18.22 27.62 11.68 52.44 28.42 73.75 49.73s38.05 46.13 49.73 73.75c12.09 28.59 18.22 58.97 18.22 90.3s-6.13 61.71-18.22 90.3c-11.68 27.62-28.42 52.44-49.73 73.75s-46.13 38.05-73.75 49.73c-28.59 12.09-58.97 18.22-90.3 18.22s-61.71-6.13-90.3-18.22c-27.62-11.68-52.44-28.42-73.75-49.73s-38.05-46.13-49.73-73.75c-12.09-28.59-18.22-58.97-18.22-90.3s6.13-61.71 18.22-90.3c11.68-27.62 28.42-52.44 49.73-73.75s46.13-38.05 73.75-49.73c28.59-12.09 58.97-18.22 90.3-18.22m0-24c-141.38 0-256 114.62-256 256s114.62 256 256 256 256-114.62 256-256-114.62-256-256-256z"/><path d="m259.5 172.02c-36.84 0-68.02 24.14-78.61 57.42 15.75-7.97 33.52-12.42 52.36-12.42h41.25c4.12 0 7.5 3.37 7.5 7.5s-3.38 7.5-7.5 7.5h-41.25c-7.78 0-15.33.89-22.64 2.53-12.14 2.77-23.39 7.69-33.47 14.39-27.19 18.14-45.14 49.12-45.14 84.33v7.5c0 6.23 5.02 11.25 11.25 11.25s11.25-5.02 11.25-11.25v-7.5c0-22.83 9.7-43.36 25.22-57.75 9.28 35.39 41.48 61.5 79.78 61.5h.47c61.92-.33 112.03-61.36 112.03-136.59 0-19.97-3.52-38.95-9.89-56.06-1.22-3.23-5.95-3.09-7.59-.05-8.81 16.5-26.25 27.7-46.27 27.7z"/></g></svg>